<svg width="617px" height="257px" viewBox="212 346 617 257" version="1.1" xmlns="http://www.w3.org/2000/svg" xmlns:xlink="http://www.w3.org/1999/xlink">
    <!-- Generator: Sketch 3.7.2 (28276) - http://www.bohemiancoding.com/sketch -->
    <desc>Created with Sketch.</desc>
    <defs></defs>
    <path d="M212.28,346.68 L321.72,346.68 L321.72,381.24 L249,381.24 L249,459 L312.36,459 L312.36,493.56 L249,493.56 L249,603 L212.28,603 L212.28,346.68 Z M345.48,346.68 L382.2,346.68 L382.2,566.28 L454.92,566.28 L454.92,603 L345.48,603 L345.48,346.68 Z M479.76,346.68 L516.48,346.68 L516.48,603 L479.76,603 L479.76,346.68 Z M585.96,468.72 L538.08,346.68 L576.96,346.68 L604.68,422.64 L632.76,346.68 L671.64,346.68 L622.68,468.72 L675.6,603 L636.72,603 L604.68,516.6 L573,603 L534.12,603 L585.96,468.72 Z M728.88,461.16 L749.76,461.16 C756.240032,461.16 761.399981,460.260009 765.24,458.46 C769.080019,456.659991 772.01999,454.080017 774.06,450.72 C776.10001,447.359983 777.479996,443.220025 778.2,438.3 C778.920004,433.379975 779.28,427.680032 779.28,421.2 C779.28,414.719968 778.920004,409.020025 778.2,404.1 C777.479996,399.179975 775.980011,394.980017 773.7,391.5 C771.419989,388.019983 768.24002,385.440008 764.16,383.76 C760.07998,382.079992 754.680034,381.24 747.96,381.24 L728.88,381.24 L728.88,461.16 Z M692.16,346.68 L751.2,346.68 C794.400216,346.68 816,371.759749 816,421.92 C816,436.800074 813.660023,449.579947 808.98,460.26 C804.299977,470.940053 796.080059,479.519968 784.32,486 L823.92,603 L785.04,603 L750.84,493.56 L728.88,493.56 L728.88,603 L692.16,603 L692.16,346.68 Z" id="FLIXR" stroke="none" fill="#E76D73" fill-rule="evenodd"></path>
</svg>